<svg xmlns="http://www.w3.org/2000/svg" xmlns:xlink="http://www.w3.org/1999/xlink" width="500" zoomAndPan="magnify" viewBox="0 0 375 374.999991" height="500" preserveAspectRatio="xMidYMid meet" version="1.0"><defs><g/><clipPath id="c2cc901c29"><path d="M 130 193 L 274 193 L 274 240 L 130 240 Z M 130 193 " clip-rule="nonzero"/></clipPath><clipPath id="a80be5c895"><path d="M 127.117188 228.128906 L 271.976562 189.199219 L 276.257812 205.132812 L 131.398438 244.0625 Z M 127.117188 228.128906 " clip-rule="nonzero"/></clipPath><clipPath id="3f7714faac"><path d="M 127.117188 228.128906 L 271.976562 189.199219 L 276.257812 205.132812 L 131.398438 244.0625 Z M 127.117188 228.128906 " clip-rule="nonzero"/></clipPath></defs><rect x="-37.5" width="450" fill="#ffffff" y="-37.499999" height="449.999989" fill-opacity="1"/><rect x="-37.5" width="450" fill="#ffffff" y="-37.499999" height="449.999989" fill-opacity="1"/><g fill="#000000" fill-opacity="1"><g transform="translate(123.780289, 198.410038)"><g><path d="M 38.550781 -61.570312 C 38.3125 -62.105469 37.9375 -62.460938 37.355469 -62.542969 C 37.183594 -62.601562 37.023438 -62.578125 36.941406 -62.566406 C 36.222656 -62.464844 35.753906 -61.746094 35.523438 -61.0625 C 32.140625 -49.175781 28.160156 -37.453125 24.171875 -25.808594 C 23.011719 -22.464844 21.859375 -19.042969 20.621094 -15.691406 C 20.273438 -14.664062 19.839844 -13.707031 19.402344 -12.75 C 19.34375 -12.578125 19.289062 -12.40625 19.058594 -12.292969 C 19.035156 -12.453125 19.023438 -12.53125 18.933594 -12.601562 C 18.730469 -13.46875 18.527344 -14.335938 18.335938 -15.125 C 17.660156 -18.78125 17.132812 -22.539062 16.855469 -26.246094 C 16.230469 -31.867188 16.003906 -37.539062 15.859375 -43.222656 C 15.792969 -44.84375 15.808594 -46.476562 15.746094 -48.097656 C 15.710938 -48.910156 15.761719 -49.730469 15.476562 -50.585938 C 15.351562 -50.894531 15.226562 -51.203125 14.941406 -51.492188 C 14.542969 -52.003906 14.03125 -52.179688 13.472656 -52.097656 C 13.070312 -52.042969 12.613281 -51.816406 12.351562 -51.371094 C 12.222656 -51.109375 12.019531 -50.835938 11.984375 -50.503906 C 11.820312 -49.910156 11.660156 -49.320312 11.5 -48.726562 C 8.550781 -33.152344 5.808594 -17.28125 5.265625 -1.390625 C 5.226562 0.0820312 5.179688 1.472656 5.371094 2.832031 C 5.378906 3.484375 5.550781 4.113281 5.878906 4.71875 C 6.09375 5.09375 6.390625 5.460938 6.8125 5.5625 C 6.984375 5.621094 7.144531 5.597656 7.304688 5.578125 C 7.863281 5.5 8.21875 5.121094 8.207031 4.472656 C 8.183594 4.3125 8.152344 4.070312 8.210938 3.902344 C 8.363281 0.945312 8.613281 -1.941406 8.777344 -4.820312 C 9.042969 -10.480469 9.378906 -16.230469 10.210938 -21.890625 C 10.792969 -26.457031 11.457031 -31.03125 12.117188 -35.609375 C 12.175781 -35.777344 12.222656 -36.03125 12.28125 -36.203125 C 12.382812 -36.050781 12.40625 -35.894531 12.425781 -35.734375 C 12.660156 -32.34375 12.820312 -28.859375 13.144531 -25.402344 C 13.523438 -21.542969 14.070312 -17.625 14.941406 -13.753906 C 15.222656 -12.324219 15.902344 -9.8125 17.019531 -8.828125 C 17.597656 -8.175781 18.375 -7.878906 19.175781 -7.988281 C 19.734375 -8.066406 20.191406 -8.296875 20.695312 -8.773438 C 21.046875 -9.148438 21.390625 -9.605469 21.65625 -10.050781 C 22.929688 -12.59375 23.679688 -15.386719 24.519531 -18.113281 C 27.300781 -26.734375 29.925781 -35.335938 32.628906 -43.949219 C 32.6875 -44.121094 32.742188 -44.289062 32.890625 -44.394531 C 32.914062 -44.234375 32.855469 -44.0625 32.878906 -43.902344 C 31.835938 -32.753906 31.238281 -21.339844 32.316406 -10.160156 C 32.605469 -6.941406 32.90625 -3.640625 33.285156 -0.351562 C 33.601562 2.457031 33.914062 5.265625 34.394531 8.132812 C 34.566406 8.757812 34.726562 9.308594 34.894531 9.9375 C 35.199219 10.953125 35.882812 11.753906 37.003906 11.597656 C 37.160156 11.574219 37.320312 11.550781 37.46875 11.449219 C 38.078125 11.121094 38.339844 10.675781 38.410156 10.011719 C 38.375 9.773438 38.34375 9.535156 38.308594 9.292969 C 38.253906 8.894531 38.195312 8.496094 38.140625 8.09375 C 37.863281 4.957031 37.515625 1.90625 37.238281 -1.234375 C 35.671875 -19.351562 36.015625 -37.820312 38.207031 -55.898438 C 38.425781 -57.234375 38.554688 -58.636719 38.773438 -59.972656 C 38.777344 -60.542969 38.777344 -61.113281 38.550781 -61.570312 Z M 38.550781 -61.570312 "/></g></g></g><g fill="#000000" fill-opacity="1"><g transform="translate(165.338307, 192.576561)"><g><path d="M 8.488281 -17.332031 C 8.25 -17.296875 7.941406 -17.171875 7.710938 -17.058594 C 5.371094 -15.75 3.078125 -12.902344 1.589844 -10.738281 C 1.441406 -10.636719 1.382812 -10.464844 1.316406 -10.375 C 1.234375 -10.363281 1.234375 -10.363281 1.15625 -10.351562 C 1.179688 -10.761719 1.214844 -11.09375 1.15625 -11.492188 C 1.242188 -12.644531 1.3125 -13.878906 1.382812 -15.109375 C 1.351562 -15.351562 1.394531 -15.601562 1.375 -15.761719 C 1.214844 -16.308594 1 -16.6875 0.496094 -16.777344 C 0.328125 -16.835938 0.0742188 -16.882812 -0.0859375 -16.859375 C -0.324219 -16.828125 -0.542969 -16.632812 -0.757812 -16.441406 C -0.894531 -16.257812 -1.101562 -15.984375 -1.148438 -15.734375 C -1.265625 -15.390625 -1.378906 -15.046875 -1.492188 -14.707031 C -1.75 -13.039062 -1.914062 -11.304688 -2.007812 -9.660156 C -2.082031 -7.289062 -2.15625 -4.914062 -2.242188 -2.621094 C -2.253906 -2.128906 -2.269531 -1.636719 -2.121094 -1.167969 C -2.019531 -0.449219 -1.382812 0.03125 -0.640625 0.0898438 C -0.558594 0.078125 -0.386719 0.136719 -0.308594 0.125 C 0.25 0.046875 0.765625 -0.351562 1.007812 -0.957031 C 1.132812 -1.21875 1.167969 -1.550781 1.214844 -1.800781 C 1.671875 -6.671875 5.222656 -11.574219 8.78125 -14.679688 C 9.007812 -14.792969 9.226562 -14.988281 9.453125 -15.101562 C 9.890625 -15.488281 10.140625 -16.011719 9.902344 -16.550781 C 9.664062 -17.085938 9.128906 -17.417969 8.488281 -17.332031 Z M 8.488281 -17.332031 "/></g></g></g><g fill="#000000" fill-opacity="1"><g transform="translate(177.56596, 190.860172)"><g><path d="M 12.703125 -14.007812 C 12.476562 -13.894531 12.257812 -13.703125 12.042969 -13.507812 C 11.765625 -13.144531 11.410156 -12.769531 11.136719 -12.402344 C 8.433594 -9.007812 5.742188 -5.535156 3.121094 -2.148438 C 2.984375 -1.96875 2.914062 -1.875 2.699219 -1.683594 C 2.675781 -1.84375 2.652344 -2.003906 2.640625 -2.082031 C 2.382812 -3.351562 2.042969 -4.605469 1.875 -5.804688 C 1.617188 -7.074219 1.515625 -8.363281 1.574219 -9.675781 C 1.644531 -10.339844 2.042969 -13.328125 2.921875 -13.453125 C 3.082031 -13.472656 3.25 -13.417969 3.523438 -13.210938 C 3.789062 -13.082031 4.0625 -12.878906 4.378906 -12.921875 C 5.101562 -13.023438 5.570312 -13.171875 5.59375 -14.152344 C 5.574219 -14.882812 5.242188 -15.488281 4.683594 -15.980469 C 3.957031 -16.53125 3.101562 -16.816406 2.222656 -16.695312 C 1.023438 -16.527344 0.015625 -15.570312 -0.5 -14.601562 C -1.382812 -13.335938 -1.84375 -11.96875 -2.050781 -10.550781 C -2.34375 -8.554688 -2.3125 -6.605469 -1.964844 -4.695312 C -1.546875 -2.308594 -1.0625 -0.015625 -0.578125 2.28125 C -0.519531 2.679688 -0.554688 3.011719 -0.832031 3.375 C -2.960938 6.773438 -4.933594 10.148438 -6.277344 13.921875 C -6.601562 15.109375 -6.921875 16.296875 -7.003906 17.449219 C -7.089844 18.601562 -6.941406 19.640625 -6.464844 20.714844 C -5.738281 22.40625 -4.210938 22.84375 -2.53125 22.605469 C 0.984375 22.113281 3.746094 17.40625 4.371094 14.300781 C 4.765625 12.453125 4.757812 10.660156 4.578125 8.8125 C 4.367188 6.722656 4.007812 4.734375 3.644531 2.75 C 3.601562 2.429688 3.554688 2.109375 3.773438 1.914062 C 4.117188 1.460938 4.382812 1.015625 4.722656 0.558594 C 6.511719 -1.808594 8.296875 -4.179688 10.085938 -6.550781 C 11.457031 -8.375 12.671875 -10.175781 13.976562 -11.90625 C 14.183594 -12.179688 14.308594 -12.441406 14.4375 -12.703125 C 14.527344 -13.207031 14.394531 -13.59375 14.015625 -13.949219 C 13.742188 -14.15625 13.480469 -14.28125 13.160156 -14.238281 C 13.003906 -14.214844 12.851562 -14.113281 12.703125 -14.007812 Z M 0.613281 10.183594 C 0.816406 12.191406 0.605469 14.179688 -0.359375 16.027344 C -0.792969 16.984375 -1.320312 17.871094 -2.121094 18.554688 C -2.421875 18.761719 -2.796875 18.976562 -3.09375 19.179688 C -3.242188 19.285156 -3.324219 19.292969 -3.402344 19.304688 C -3.644531 19.339844 -3.746094 19.191406 -3.882812 18.800781 C -4.351562 15.445312 -1.660156 10.828125 -0.03125 7.910156 C 0.0273438 7.738281 0.09375 7.648438 0.234375 7.464844 C 0.367188 8.425781 0.570312 9.292969 0.613281 10.183594 Z M 0.613281 10.183594 "/></g></g></g><g fill="#000000" fill-opacity="1"><g transform="translate(190.193198, 189.087693)"><g/></g></g><g fill="#000000" fill-opacity="1"><g transform="translate(215.128003, 185.587608)"><g><path d="M 26.730469 -55.183594 C 21.9375 -54.511719 14.695312 -43.957031 11.96875 -39.582031 C 11.898438 -39.488281 11.851562 -39.238281 11.691406 -39.214844 C 11.660156 -39.457031 11.636719 -39.617188 11.613281 -39.777344 C 11.355469 -41.613281 11.179688 -43.464844 10.910156 -45.382812 C 10.761719 -46.421875 10.457031 -47.4375 10.070312 -48.445312 C 10.039062 -48.683594 9.914062 -48.992188 9.730469 -49.128906 C 9.433594 -49.496094 9.003906 -49.679688 8.601562 -49.621094 C 8.203125 -49.566406 7.835938 -49.269531 7.652344 -48.835938 C 7.515625 -48.65625 7.480469 -48.324219 7.515625 -48.085938 C 7.523438 -47.433594 7.535156 -46.785156 7.53125 -46.210938 C 7.722656 -44.28125 7.980469 -42.445312 8 -40.574219 C 8.082031 -38.21875 8.019531 -35.765625 8.039062 -33.324219 C 8.105469 -32.84375 7.921875 -32.410156 7.726562 -32.058594 C 3.515625 -23.722656 -0.195312 -13.585938 0.0664062 -4.167969 C 0.03125 -2.695312 0.164062 -1.164062 0.46875 0.421875 C 0.535156 0.902344 0.691406 1.453125 1 1.898438 C 1.589844 2.628906 2.378906 3.007812 3.257812 2.882812 C 3.417969 2.863281 3.65625 2.828125 3.886719 2.714844 C 4.410156 2.398438 4.847656 2.007812 5.191406 1.554688 C 10.214844 -4.449219 11.667969 -24.296875 11.746094 -33.027344 C 11.769531 -33.441406 11.898438 -33.703125 12.011719 -34.042969 C 14.933594 -39.34375 20.46875 -48.109375 25.707031 -51.453125 C 26.003906 -51.65625 26.3125 -51.78125 26.609375 -51.988281 C 26.699219 -51.917969 26.710938 -51.839844 26.710938 -51.839844 C 26.734375 -51.679688 26.746094 -51.597656 26.769531 -51.4375 C 26.8125 -50.546875 26.695312 -49.636719 26.488281 -48.792969 C 25.414062 -43.097656 22.121094 -36.929688 19.324219 -31.890625 C 18.40625 -30.296875 17.570312 -28.710938 16.730469 -27.125 C 16.46875 -26.683594 16.296875 -26.167969 16.125 -25.65625 C 15.996094 -24.824219 16.347656 -24.058594 16.964844 -23.734375 C 17.316406 -23.542969 17.738281 -23.4375 18.058594 -23.480469 C 18.539062 -23.550781 19.210938 -23.96875 19.554688 -24.425781 C 20.769531 -25.65625 22.003906 -26.726562 23.617188 -27.441406 C 23.992188 -27.65625 24.460938 -27.804688 24.941406 -27.871094 C 25.433594 -27.859375 25.695312 -27.734375 25.910156 -27.355469 C 26.023438 -27.128906 26.148438 -26.820312 26.261719 -26.589844 C 26.558594 -25.652344 26.703125 -24.613281 26.757812 -23.644531 C 27.160156 -11.472656 22.558594 -0.722656 13.875 7.671875 C 12.582031 8.910156 11.265625 9.992188 9.664062 10.789062 C 9.289062 11.003906 8.820312 11.152344 8.429688 11.289062 C 8.191406 11.320312 7.941406 11.273438 7.828125 11.046875 C 7.632812 10.828125 7.449219 10.691406 7.257812 10.472656 C 6.972656 10.1875 6.710938 10.0625 6.390625 10.105469 C 6.152344 10.140625 5.921875 10.253906 5.714844 10.527344 C 5.15625 11.175781 4.9375 11.941406 5.21875 12.796875 C 5.433594 13.746094 6.175781 14.375 7.121094 14.730469 C 7.886719 14.949219 8.617188 14.929688 9.414062 14.816406 C 12.980469 14.070312 17.257812 10.292969 19.660156 7.671875 C 26.953125 -0.765625 31.949219 -13.941406 30.355469 -25.289062 C 30.109375 -26.476562 29.871094 -27.585938 29.246094 -28.558594 C 28.042969 -30.753906 26.351562 -31.167969 24.035156 -30.84375 C 23.714844 -30.796875 23.40625 -30.671875 23.085938 -30.628906 C 23.144531 -30.796875 23.214844 -30.890625 23.269531 -31.0625 C 26.457031 -36.804688 30.140625 -44.25 30.167969 -51.019531 C 30.207031 -51.921875 30.082031 -52.800781 29.648438 -53.554688 C 29.152344 -54.789062 28.011719 -55.363281 26.730469 -55.183594 Z M 7.339844 -22.628906 C 6.71875 -16.023438 5.671875 -9.519531 3.457031 -3.257812 C 3.398438 -3.085938 3.339844 -2.914062 3.203125 -2.730469 C 3.019531 -2.871094 3.078125 -3.039062 3.054688 -3.199219 C 2.765625 -10.496094 4.789062 -16.972656 7.179688 -23.75 C 7.238281 -23.917969 7.296875 -24.089844 7.351562 -24.261719 C 7.445312 -24.191406 7.445312 -24.191406 7.523438 -24.203125 C 7.433594 -23.703125 7.429688 -23.132812 7.339844 -22.628906 Z M 7.339844 -22.628906 "/></g></g></g><g clip-path="url(#c2cc901c29)"><g clip-path="url(#a80be5c895)"><g clip-path="url(#3f7714faac)"><path fill="#000000" d="M 265.722656 197.117188 C 261.078125 198.933594 256.199219 200.589844 251.066406 202.160156 C 226.402344 209.738281 197.308594 215.121094 173.800781 223.605469 C 172.660156 224.027344 172.59375 224.921875 172.578125 225 C 172.566406 225.234375 172.796875 227.222656 174.625 226.960938 C 174.882812 226.929688 175.878906 226.664062 176.277344 226.59375 C 183.214844 224.804688 190.066406 222.847656 196.949219 221 C 198.6875 220.53125 200.398438 220.109375 202.109375 219.6875 C 211.089844 217.429688 219.972656 215.535156 228.898438 213.933594 C 237.835938 212.371094 246.804688 211.0625 256 210.039062 C 256.921875 209.941406 257.601562 209.074219 257.507812 208.148438 C 257.402344 207.1875 256.542969 206.542969 255.617188 206.640625 C 251.039062 207.148438 246.546875 207.707031 242.078125 208.339844 C 245.484375 207.425781 248.835938 206.449219 252.105469 205.453125 C 258.8125 203.386719 265.242188 201.125 271.113281 198.632812 C 272.308594 198.125 272.957031 197.570312 273.238281 197.1875 C 273.695312 196.496094 273.703125 195.808594 273.433594 195.234375 C 273.238281 194.792969 272.765625 194.160156 271.699219 193.875 C 270.097656 193.429688 266 193.46875 260.1875 194.34375 C 257.886719 194.695312 253.324219 195.695312 248.441406 196.777344 C 241.269531 198.402344 233.410156 200.285156 230.996094 200.933594 C 215.078125 205.097656 191.265625 210.890625 169.609375 218.34375 C 154.511719 223.582031 140.421875 229.609375 130.824219 236.488281 C 130.058594 237.035156 129.855469 238.117188 130.4375 238.875 C 130.984375 239.640625 132.023438 239.816406 132.824219 239.261719 C 142.203125 232.554688 155.957031 226.691406 170.753906 221.613281 C 192.292969 214.148438 216.007812 208.421875 231.882812 204.234375 C 234.269531 203.628906 242.085938 201.71875 249.1875 200.117188 C 253.996094 199.050781 258.453125 198.082031 260.71875 197.738281 C 262.621094 197.457031 264.273438 197.238281 265.722656 197.117188 Z M 265.722656 197.117188 " fill-opacity="1" fill-rule="evenodd"/></g></g></g></svg>